<?xml version="1.0" standalone="no"?>
<!DOCTYPE svg PUBLIC "-//W3C//DTD SVG 20010904//EN"
 "http://www.w3.org/TR/2001/REC-SVG-20010904/DTD/svg10.dtd">
<svg version="1.0" xmlns="http://www.w3.org/2000/svg"
 width="512.000000pt" height="512.000000pt" border-radius="16" viewBox="0 0 512.000000 512.000000"
 preserveAspectRatio="xMidYMid meet">
<metadata>
Created by potrace 1.16, written by Peter Selinger 2001-2019
</metadata>
<g transform="translate(0.000000,512.000000) scale(0.100000,-0.100000)"
fill="#000000" stroke="none">
<path d="M17 5093 c-21 -41 -22 -5037 -1 -5057 7 -8 11 -15 9 -18 -2 -2 4 -5
13 -6 9 -1 1144 -3 2522 -4 2486 -3 2505 -3 2531 17 l26 20 0 2522 c0 1395 -4
2520 -8 2517 -5 -3 -9 0 -9 5 0 6 -4 11 -10 11 -7 0 -10 -843 -10 -2510 l0
-2510 -2520 0 -2520 0 -1 2513 c-1 1381 -1 2515 0 2520 2 16 -9 5 -22 -20z"/>
</g>
</svg>
