<svg width="512" height="512" viewBox="0 0 512 512" fill="none" xmlns="http://www.w3.org/2000/svg">
<g clip-path="url(#clip0_305_120)">
<rect x="-1" width="513" height="512" rx="16" fill="#36AEE8"/>
<path fill-rule="evenodd" clip-rule="evenodd" d="M110 286C110 277.163 117.163 270 126 270H226C234.837 270 242 277.163 242 286V386C242 394.837 234.837 402 226 402H126C117.163 402 110 394.837 110 386V286ZM126 308.5C126 296.074 136.074 286 148.5 286H203.5C215.926 286 226 296.074 226 308.5V363.5C226 375.926 215.926 386 203.5 386H148.5C136.074 386 126 375.926 126 363.5V308.5ZM162.8 312C156.835 312 152 316.835 152 322.8V349.2C152 355.165 156.835 360 162.8 360H189.2C195.165 360 200 355.165 200 349.2V322.8C200 316.835 195.165 312 189.2 312H162.8Z" fill="white"/>
<path fill-rule="evenodd" clip-rule="evenodd" d="M270 126C270 117.163 277.163 110 286 110H386C394.837 110 402 117.163 402 126V226C402 234.837 394.837 242 386 242H286C277.163 242 270 234.837 270 226V126ZM286 148.5C286 136.074 296.074 126 308.5 126H363.5C375.926 126 386 136.074 386 148.5V203.5C386 215.926 375.926 226 363.5 226H308.5C296.074 226 286 215.926 286 203.5V148.5ZM322.8 152C316.835 152 312 156.835 312 162.8V189.2C312 195.165 316.835 200 322.8 200H349.2C355.165 200 360 195.165 360 189.2V162.8C360 156.835 355.165 152 349.2 152H322.8Z" fill="white"/>
<path fill-rule="evenodd" clip-rule="evenodd" d="M110 126C110 117.163 117.163 110 126 110H226C234.837 110 242 117.163 242 126V226C242 234.837 234.837 242 226 242H126C117.163 242 110 234.837 110 226V126ZM126 148.5C126 136.074 136.074 126 148.5 126H203.5C215.926 126 226 136.074 226 148.5V203.5C226 215.926 215.926 226 203.5 226H148.5C136.074 226 126 215.926 126 203.5V148.5ZM162.8 152C156.835 152 152 156.835 152 162.8V189.2C152 195.165 156.835 200 162.8 200H189.2C195.165 200 200 195.165 200 189.2V162.8C200 156.835 195.165 152 189.2 152H162.8Z" fill="white"/>
<path fill-rule="evenodd" clip-rule="evenodd" d="M325.5 317C321.082 317 317.5 320.582 317.5 325V347C317.5 351.418 321.082 355 325.5 355H347.5C351.918 355 355.5 351.418 355.5 347V325C355.5 320.582 351.918 317 347.5 317H325.5ZM331.5 327C329.291 327 327.5 328.791 327.5 331V341C327.5 343.209 329.291 345 331.5 345H341.5C343.709 345 345.5 343.209 345.5 341V331C345.5 328.791 343.709 327 341.5 327H331.5Z" fill="white"/>
<path fill-rule="evenodd" clip-rule="evenodd" d="M350.5 342C346.082 342 342.5 345.582 342.5 350V389C342.5 393.418 346.082 397 350.5 397H389.5C393.918 397 397.5 393.418 397.5 389V350C397.5 345.582 393.918 342 389.5 342H350.5ZM357.5 351C354.186 351 351.5 353.686 351.5 357V382C351.5 385.314 354.186 388 357.5 388H382.5C385.814 388 388.5 385.314 388.5 382V357C388.5 353.686 385.814 351 382.5 351H357.5Z" fill="white"/>
<path fill-rule="evenodd" clip-rule="evenodd" d="M283.5 342C279.082 342 275.5 345.582 275.5 350V389C275.5 393.418 279.082 397 283.5 397H322.5C326.918 397 330.5 393.418 330.5 389V350C330.5 345.582 326.918 342 322.5 342H283.5ZM290.5 351C287.186 351 284.5 353.686 284.5 357V382C284.5 385.314 287.186 388 290.5 388H315.5C318.814 388 321.5 385.314 321.5 382V357C321.5 353.686 318.814 351 315.5 351H290.5Z" fill="white"/>
<path fill-rule="evenodd" clip-rule="evenodd" d="M350.5 275C346.082 275 342.5 278.582 342.5 283V322C342.5 326.418 346.082 330 350.5 330H389.5C393.918 330 397.5 326.418 397.5 322V283C397.5 278.582 393.918 275 389.5 275H350.5ZM359.5 284C355.082 284 351.5 287.582 351.5 292V313C351.5 317.418 355.082 321 359.5 321H380.5C384.918 321 388.5 317.418 388.5 313V292C388.5 287.582 384.918 284 380.5 284H359.5Z" fill="white"/>
<path fill-rule="evenodd" clip-rule="evenodd" d="M283.5 275C279.082 275 275.5 278.582 275.5 283V322C275.5 326.418 279.082 330 283.5 330H322.5C326.918 330 330.5 326.418 330.5 322V283C330.5 278.582 326.918 275 322.5 275H283.5ZM290.5 284C287.186 284 284.5 286.686 284.5 290V315C284.5 318.314 287.186 321 290.5 321H315.5C318.814 321 321.5 318.314 321.5 315V290C321.5 286.686 318.814 284 315.5 284H290.5Z" fill="white"/>
</g>
<defs>
<clipPath id="clip0_305_120">
<rect width="512" height="512" rx="128" fill="white"/>
</clipPath>
</defs>
</svg>
